<?xml version="1.0" encoding="UTF-8"?>
<svg version="1.1" xmlns="http://www.w3.org/2000/svg" width="1948" height="440">
<path d="M0 0 C2.97309482 2.64864995 5.22069247 5.44138493 7 9 C7.10801978 11.7708754 7.15490862 14.51728898 7.15821838 17.28884888 C7.16562535 18.5899818 7.16562535 18.5899818 7.17318195 19.91740024 C7.18861132 22.84092758 7.19693225 25.76443287 7.20532227 28.68798828 C7.21489652 30.77692867 7.22490633 32.8658671 7.23532104 34.95480347 C7.26242525 40.64044165 7.28340489 46.32608818 7.30332303 52.01175547 C7.32514864 57.9481907 7.35255404 63.88460004 7.37937927 69.8210144 C7.42935258 81.06904487 7.47427417 92.31708967 7.51740164 103.56514823 C7.56673443 116.36787019 7.62166721 129.17056617 7.67708123 141.97326303 C7.79097246 168.31548447 7.8977959 194.65773081 8 221 C8.44966629 220.57800827 8.89933258 220.15601654 9.36262512 219.72123718 C11.43553643 217.77615876 13.50878192 215.83143688 15.58203125 213.88671875 C16.28912231 213.22313354 16.99621338 212.55954834 17.72473145 211.87585449 C23.59556996 206.36972726 29.50077946 200.90203883 35.42333984 195.45166016 C38.11810946 192.97053594 40.80881314 190.48500884 43.5 188 C44.58331462 186.99997973 45.66664794 185.99997971 46.75 185 C47.28625 184.505 47.8225 184.01 48.375 183.5 C53.25 179 53.25 179 54.87451172 177.50048828 C55.95952256 176.49891474 57.04448338 175.497287 58.12939453 174.49560547 C60.81165757 172.01923728 63.49473934 169.54376936 66.1796875 167.0703125 C71.99300195 161.71287445 77.78754169 156.33627782 83.5625 150.9375 C88.23770283 146.56997119 92.91815565 142.20843815 97.625 137.875 C98.54539062 137.02679688 99.46578125 136.17859375 100.4140625 135.3046875 C106.15745213 130.18595656 109.83706403 127.60945474 117.59765625 127.72265625 C124.34126334 128.5011865 130.59379664 132.99489521 135 138 C138.91734829 143.89580702 140.9421132 148.934151 140 156 C137.31429951 164.41519488 128.74258612 170.46544505 122.23046875 176.0546875 C119.4413412 178.48723658 116.72084121 180.99180377 114 183.5 C110.06738493 187.12115098 106.09785354 190.68959475 102.05859375 194.19140625 C98.55458229 197.26988311 95.12457302 200.42992574 91.6796875 203.57421875 C88.773983 206.20460139 85.82777535 208.78192817 82.8515625 211.33203125 C80.47922791 213.46913435 78.24382281 215.72918963 76 218 C82.25462137 227.13015705 88.54758771 236.23262167 94.875 245.3125 C101.47778535 254.7905032 108.01978062 264.30824042 114.53125 273.84912109 C120.66519349 282.83184086 126.84372848 291.78256806 133.06494141 300.70507812 C152.66973852 328.8291901 152.66973852 328.8291901 152 337 C148.33166132 347.32717084 141.29815707 352.77518419 132 358 C126.33036887 359.88987704 120.23246657 359.98743714 114.75 357.5625 C108.64353347 351.87238346 104.26337452 344.95055119 99.6796875 338.03125 C95.06654692 331.08985427 90.42782729 324.16635213 85.765625 317.2578125 C85.15103424 316.34703949 84.53644348 315.43626648 83.90322876 314.49789429 C82.01919409 311.70667619 80.13466122 308.91579507 78.25 306.125 C75.73395835 302.39871859 73.21828708 298.67218766 70.703125 294.9453125 C70.10584595 294.06033081 69.50856689 293.17534912 68.89318848 292.2635498 C65.17078188 286.74487624 61.47029312 281.21240941 57.78417969 275.66943359 C54.55638512 270.84010877 51.27748248 266.04568012 48 261.25 C47.32066406 260.25484375 46.64132812 259.2596875 45.94140625 258.234375 C44.29485107 255.82251952 42.64771162 253.41106551 41 251 C38.02183282 252.42432416 36.02068318 253.77903265 33.75 256.1875 C31.37176079 258.63598256 28.96200541 260.96071053 26.375 263.1875 C22.52825407 266.50313703 18.79045974 269.92727298 15.0625 273.375 C14.19214111 274.17973755 14.19214111 274.17973755 13.30419922 275.00073242 C9.34103852 278.11097619 9.34103852 278.11097619 7.86196899 282.44036865 C7.85547333 283.52449036 7.84897766 284.60861206 7.84228516 285.72558594 C7.82689194 287.56319489 7.82689194 287.56319489 7.81118774 289.43792725 C7.80603086 290.42650349 7.80603086 290.42650349 7.80076981 291.43505096 C7.78900234 293.4949056 7.76955343 295.55454851 7.74765015 297.61431885 C7.68597603 303.47229938 7.63205758 309.33026153 7.59863281 315.18847656 C7.57765156 318.76893969 7.54231522 322.34902249 7.49787521 325.92926788 C7.48373536 327.29272218 7.47499731 328.65624384 7.47182083 330.01976776 C7.46689609 331.93220637 7.44209985 333.84456228 7.41650391 335.75683594 C7.40437363 337.38779205 7.40437363 337.38779205 7.39199829 339.05169678 C6.63239246 344.76485513 3.24547674 348.17459716 -1.078125 351.640625 C-8.91020719 357.18039045 -17.81834923 356.69099021 -27 356 C-33.62722969 354.7163474 -38.77485994 351.1618449 -42.64373875 345.66430569 C-44.7193349 340.05652268 -44.41568106 334.61658061 -44.38768005 328.68360901 C-44.39185449 327.30985658 -44.39733261 325.93610759 -44.40399987 324.562365 C-44.41845891 320.79264248 -44.41420838 317.02313852 -44.40683305 313.25340402 C-44.40210482 309.18583202 -44.41460816 305.11830753 -44.42485046 301.05075073 C-44.44205044 293.08419457 -44.44287601 285.11771723 -44.43763756 277.15114731 C-44.43359694 270.67632271 -44.43503813 264.20152141 -44.44038582 257.72669792 C-44.44113424 256.80533663 -44.44188266 255.88397534 -44.44265376 254.934694 C-44.44418523 253.06298232 -44.44572358 251.19127064 -44.44726873 249.31955897 C-44.46099805 231.76535058 -44.455553 214.21118675 -44.44408352 196.65697937 C-44.43415016 180.59596048 -44.44709282 164.53505678 -44.47101771 148.47405566 C-44.49539739 131.98354894 -44.5050194 115.4930959 -44.49836498 99.00257152 C-44.49487032 89.74400065 -44.49712119 80.48551839 -44.51461601 71.22696114 C-44.52932383 63.34555275 -44.52999204 55.46429536 -44.5125451 47.58288998 C-44.50402107 43.56173237 -44.50191959 39.54084468 -44.51719666 35.519701 C-44.5310122 31.83767227 -44.52632153 28.15614547 -44.50695742 24.474146 C-44.50140314 22.51317102 -44.51549508 20.55217068 -44.53031152 18.5912438 C-44.47378555 11.85136323 -44.14767127 7.4239394 -40 2 C-29.63301908 -6.52396209 -11.48525111 -6.78495143 0 0 Z " fill="#FFFFFF" transform="translate(746,42)"/>
<path d="M0 0 C0.825 0.74121094 1.65 1.48242188 2.5 2.24609375 C3.22316406 2.89553955 3.22316406 2.89553955 3.9609375 3.55810547 C19.40378854 17.63402902 29.39785845 35.90262479 30.66845703 57.04980469 C31.82333507 87.05730522 31.82333507 87.05730522 23.48828125 98.30859375 C14.07161092 107.48475973 0.61325588 108.56240368 -11.82470703 108.47314453 C-12.90881363 108.47343658 -13.99292023 108.47372864 -15.10987854 108.47402954 C-18.659274 108.4726468 -22.20845414 108.4571355 -25.7578125 108.44140625 C-28.2321664 108.43767237 -30.70652178 108.43482717 -33.18087769 108.43283081 C-39.66797017 108.42522392 -46.15497196 108.40560082 -52.64202881 108.38342285 C-59.27175749 108.36290084 -65.90149781 108.35381554 -72.53125 108.34375 C-85.52087185 108.32235207 -98.51043108 108.28864068 -111.5 108.24609375 C-111.37795544 111.43149624 -111.24101942 114.61609732 -111.1015625 117.80078125 C-111.06748291 118.69498779 -111.03340332 119.58919434 -110.99829102 120.51049805 C-110.35492417 134.69706195 -105.66351515 145.5763709 -95.3125 155.49609375 C-80.06633933 168.30908107 -60.63679642 170.38788126 -41.5 169.24609375 C-27.12289968 167.90727043 -14.52692381 160.86969753 -1.86572266 154.39770508 C2.5687945 152.23902423 6.62267449 151.51318616 11.5 152.24609375 C18.78624641 154.91544758 22.20443585 160.51812541 25.5 167.24609375 C27.07118358 171.9596445 27.52006837 176.65778943 25.6640625 181.3671875 C20.83743774 189.67610864 12.99338165 195.03790577 4.625 199.37109375 C3.80418945 199.79777344 2.98337891 200.22445312 2.13769531 200.6640625 C-6.11981756 204.79755918 -14.4800062 207.37714415 -23.5 209.24609375 C-24.64726563 209.48972656 -25.79453125 209.73335937 -26.9765625 209.984375 C-59.17205235 215.42430259 -96.1764212 211.07820843 -123.5 192.24609375 C-144.01375755 177.29119316 -157.88843943 157.1909082 -161.88256836 131.83618164 C-163.32343784 120.66752901 -162.9441898 109.26209085 -162.89111328 98.01660156 C-162.87399207 94.35154055 -162.8839172 90.6871377 -162.90183067 87.02210045 C-162.91279676 84.14772802 -162.90916489 81.27350551 -162.9014473 78.39912796 C-162.89854521 76.40600391 -162.90746464 74.4128734 -162.9168396 72.41976929 C-162.71573316 45.93561462 -152.39223341 24.71814494 -134.375 5.68359375 C-99.04939021 -28.85261694 -37.96865594 -32.03605345 0 0 Z M-102.5 34.24609375 C-110.10919222 43.53731793 -111.97847685 52.48299623 -111.6875 64.30859375 C-111.67396484 65.36498047 -111.66042969 66.42136719 -111.64648438 67.50976562 C-111.6114709 70.08909184 -111.56236675 72.66730869 -111.5 75.24609375 C-100.53831238 75.31568492 -89.57667756 75.36895138 -78.6148138 75.40153027 C-73.52446105 75.41716858 -68.43425974 75.43837342 -63.34399414 75.47241211 C-58.42918476 75.50507086 -53.51452082 75.52296056 -48.59961128 75.53072548 C-46.72697219 75.53625728 -44.85434082 75.54705957 -42.98176384 75.56328392 C-40.35347328 75.58514484 -37.72577935 75.58805707 -35.09741211 75.58666992 C-34.32776627 75.59745575 -33.55812042 75.60824158 -32.76515198 75.61935425 C-27.63089761 75.59014222 -24.07158634 74.62197977 -19.5 72.24609375 C-15.7810812 67.74640747 -16.99527527 59.7593229 -17.3046875 54.18603516 C-17.75184663 49.74462711 -19.33666626 46.09953197 -21.5 42.24609375 C-21.9125 41.49070312 -22.325 40.7353125 -22.75 39.95703125 C-29.68658847 28.48801282 -40.03910733 21.35962726 -52.875 17.93359375 C-71.8782845 14.41070322 -89.34080384 20.33689159 -102.5 34.24609375 Z " fill="#FFFFFF" transform="translate(1077.5,190.75390625)"/>
<path d="M0 0 C18.72841422 17.74443449 28.58894231 40.57380413 29.60473633 66.18768311 C29.78825777 73.72839347 29.79468254 81.26743433 29.76777077 88.80978537 C29.75748497 92.60522619 29.76707613 96.40063267 29.77331543 100.19607544 C29.78053491 106.54826959 29.7711428 112.90027592 29.75195312 119.25244141 C29.73006329 126.58284286 29.73734558 133.91280126 29.75925875 141.24319255 C29.77741994 147.57403657 29.77997154 153.90474754 29.76950407 160.23560917 C29.76328987 164.00153644 29.76237865 167.76725516 29.77565002 171.53316879 C29.78937147 175.71622788 29.77034778 179.89852092 29.74804688 184.08154297 C29.7561438 185.31895233 29.76424072 186.55636169 29.77258301 187.83126831 C29.70964611 194.19508811 29.63626298 198.3406297 25.23046875 203.11328125 C17.29051078 209.3271614 8.8665339 209.99479349 -0.84423828 209.35595703 C-6.8437148 208.59974607 -11.79935785 205.5104901 -15.83203125 201.11328125 C-18.95482076 196.27799427 -18.96119274 191.46931275 -19.33203125 185.80078125 C-19.41582031 184.54652344 -19.49960937 183.29226563 -19.5859375 182 C-19.64652344 181.04738281 -19.70710937 180.09476563 -19.76953125 179.11328125 C-20.18460938 179.63535156 -20.5996875 180.15742188 -21.02734375 180.6953125 C-34.49128364 196.77880554 -54.50867661 209.82104925 -75.55078125 212.86328125 C-95.00843215 214.37455511 -114.3384281 213.35570524 -130.484375 201.04296875 C-143.9178805 189.44773242 -150.81814022 175.86346831 -152.35961914 158.23779297 C-153.66864207 140.33515578 -151.08937386 122.63220981 -139.76953125 108.11328125 C-119.36957681 86.23451971 -84.75592122 82.46531093 -56.4296875 81.265625 C-44.55317464 80.87568941 -32.65029713 81.03640223 -20.76953125 81.11328125 C-21.86191482 66.69669277 -23.10965391 52.78049891 -30.76953125 40.11328125 C-31.16527344 39.448125 -31.56101562 38.78296875 -31.96875 38.09765625 C-37.68043574 29.52194471 -46.51953075 24.61699103 -56.484375 22.546875 C-76.49144963 19.90622662 -93.26920915 24.8631202 -110.97265625 33.71484375 C-119.88643324 38.07431392 -119.88643324 38.07431392 -125.76953125 36.11328125 C-131.67664807 33.27786518 -134.20299048 28.92123009 -136.76953125 23.11328125 C-138.86254877 16.72825313 -138.97173469 8.75812882 -136.20703125 2.67578125 C-135.40265625 1.83015625 -134.59828125 0.98453125 -133.76953125 0.11328125 C-133.35316406 -0.36109375 -132.93679688 -0.83546875 -132.5078125 -1.32421875 C-102.57277317 -31.49496705 -30.00268972 -25.88171726 0 0 Z M-93.62109375 123.80859375 C-99.28072023 130.02581889 -101.32327016 136.21858048 -101.20703125 144.48828125 C-101.20018311 145.23634033 -101.19333496 145.98439941 -101.1862793 146.75512695 C-101.01693727 152.58696203 -100.03660466 157.18571508 -96.76953125 162.11328125 C-96.06828125 163.18578125 -95.36703125 164.25828125 -94.64453125 165.36328125 C-86.97808132 172.69640727 -78.39914689 174.43866759 -68.14453125 174.32421875 C-53.67679844 173.41998545 -41.20103629 164.64821302 -31.76953125 154.11328125 C-23.41842463 143.10164508 -20.58028446 133.40743502 -20.70703125 119.73828125 C-20.71154297 118.81144531 -20.71605469 117.88460937 -20.72070312 116.9296875 C-20.73241551 114.65748416 -20.74881753 112.38541737 -20.76953125 110.11328125 C-59.61101994 108.0035148 -59.61101994 108.0035148 -93.62109375 123.80859375 Z " fill="#FFFFFF" transform="translate(421.76953125,188.88671875)"/>
<path d="M0 0 C5.41066863 4.64448636 10.36500712 9.01104702 11.41796875 16.359375 C11.83577525 25.20704207 9.18018118 31.47630434 3.61328125 38.234375 C-0.05735445 42.15439571 -2.6373695 43.57305265 -8.015625 44.09375 C-13.16010018 43.70548772 -16.81356635 41.81333729 -21.38671875 39.546875 C-39.63874227 31.01036441 -59.2188721 27.24953797 -79.08984375 32.7578125 C-91.57005151 37.29296996 -98.82473424 43.74928148 -104.6875 55.5390625 C-108.14044931 64.45472727 -108.26092469 73.02653954 -108.25 82.47265625 C-108.25389752 83.88836286 -108.25823432 85.30406833 -108.26298523 86.71977234 C-108.27040913 89.67576907 -108.27018468 92.63164629 -108.26489258 95.58764648 C-108.25910999 99.34287831 -108.27601799 103.09761495 -108.29923725 106.85276508 C-108.31409744 109.77419307 -108.31482966 112.69550524 -108.31172752 115.61696434 C-108.31223482 116.99980841 -108.31735904 118.38266 -108.32753944 119.76546669 C-108.42411547 134.71783178 -105.91942354 147.29839064 -95.94921875 158.796875 C-81.59851102 170.6775814 -63.69225149 171.16050397 -45.94921875 169.796875 C-35.55874541 168.62320027 -26.42842405 163.9188688 -17.2668457 159.15087891 C-11.55779526 156.24451245 -7.16867983 154.60296774 -0.7265625 156.42578125 C5.9435076 159.81038157 10.30003001 164.15095305 12.92578125 171.234375 C14.96373747 178.37935246 14.68857883 184.12757944 11.05078125 190.796875 C6.76372701 197.31494727 0.71819076 200.97643098 -5.94921875 204.796875 C-6.72007812 205.250625 -7.4909375 205.704375 -8.28515625 206.171875 C-13.38169028 208.95496526 -18.66324025 210.8023227 -24.19921875 212.484375 C-25.18075928 212.78819092 -25.18075928 212.78819092 -26.18212891 213.09814453 C-37.60139967 216.38704812 -49.30916151 217.1645692 -61.13671875 217.109375 C-62.39758301 217.10446045 -63.65844727 217.0995459 -64.95751953 217.09448242 C-91.25366477 216.76708181 -115.92612224 210.36450404 -135.28515625 191.5234375 C-154.82566755 170.91586756 -160.09230707 144.59509238 -160.1171875 117.0390625 C-160.1205159 115.73720001 -160.1238443 114.43533752 -160.12727356 113.09402466 C-160.13322354 110.34913301 -160.13511787 107.60427263 -160.13452148 104.859375 C-160.13444042 102.07838409 -160.14135742 99.29755857 -160.1550293 96.51660156 C-160.31193844 64.08589241 -158.27359533 32.67926125 -134.390625 8.19433594 C-102.5457142 -22.67969343 -35.824366 -26.76151314 0 0 Z " fill="#FFFFFF" transform="translate(652.94921875,185.203125)"/>
<path d="M0 0 C9.98251066 7.98052363 18.47947814 16.48544421 24.6875 27.75 C25.14640625 28.54792969 25.6053125 29.34585938 26.078125 30.16796875 C32.83263085 42.63939069 34.87153641 55.96146506 34.9375 69.9375 C34.9684375 71.5472168 34.9684375 71.5472168 35 73.18945312 C35.04617541 82.73044621 33.97221868 92.17136865 27.6875 99.75 C19.85096082 107.58653918 8.86473946 108.86018784 -1.67437744 108.87442017 C-3.32515289 108.86902725 -3.32515289 108.86902725 -5.00927734 108.86352539 C-6.18058197 108.86367142 -7.3518866 108.86381744 -8.5586853 108.8639679 C-12.42195501 108.86327243 -16.28517623 108.85549709 -20.1484375 108.84765625 C-22.83029258 108.84579077 -25.51214499 108.84431827 -28.19400024 108.84336853 C-34.5261837 108.84026527 -40.85834982 108.83206546 -47.19052565 108.82201904 C-54.40213339 108.81082665 -61.61374198 108.80533958 -68.82535625 108.80032361 C-83.65441302 108.78988199 -98.48345621 108.77230205 -113.3125 108.75 C-113.12206977 112.64336931 -112.90927675 116.53487993 -112.67773438 120.42602539 C-112.56562127 122.38301673 -112.4700722 124.34093494 -112.375 126.29882812 C-111.34092783 143.23175998 -106.06266967 158.12005291 -93.3125 169.75 C-84.60649196 176.38263206 -75.83842023 180.66257043 -65.3125 183.75 C-64.5596875 183.98332031 -63.806875 184.21664062 -63.03125 184.45703125 C-41.82406271 190.12587554 -18.53168123 185.96193347 0.26953125 175.2421875 C1.81418544 174.28894372 3.33607196 173.29706675 4.82421875 172.2578125 C9.03900118 169.32650998 12.29176244 167.88848603 17.5078125 168.1953125 C22.41241496 169.44343714 25.57398326 172.91027669 28.125 177.125 C29.11051158 181.72405405 29.78072558 185.49468423 27.6953125 189.796875 C17.89653825 204.07983407 -1.58535814 210.71091301 -17.8125 213.9375 C-48.79963422 219.01956991 -83.58288855 215.16915003 -109.625 196.5 C-128.50899729 181.37207899 -141.2020767 162.15355202 -144.3125 137.75 C-144.79527281 131.74847072 -144.73678739 125.73130367 -144.7109375 119.71484375 C-144.7129661 118.0210406 -144.71588402 116.32723832 -144.71963501 114.63343811 C-144.72402026 111.10962484 -144.71775072 107.58604202 -144.70361328 104.06225586 C-144.6865104 99.58547364 -144.69639388 95.10923083 -144.71433067 90.63246822 C-144.72526099 87.14307213 -144.72168043 83.6538003 -144.7139473 80.1644001 C-144.71197141 78.515274 -144.71431063 76.86613595 -144.72138596 75.21702385 C-144.80883016 49.12453187 -136.79622835 27.67566849 -118.4375 8.7890625 C-87.22986143 -22.16752453 -35.48089463 -25.45569394 0 0 Z M-99.3125 30.75 C-110.63526428 44.08431764 -113.47835691 59.21455906 -113.35546875 76.2109375 C-113.35236694 77.0361792 -113.34926514 77.8614209 -113.34606934 78.71166992 C-113.33805315 80.72446176 -113.32572605 82.73723566 -113.3125 84.75 C-99.63001491 84.81956928 -85.94757205 84.87284663 -72.26494598 84.90543652 C-65.91126753 84.92107952 -59.55771027 84.94229321 -53.20410156 84.97631836 C-47.07032584 85.00895997 -40.93666656 85.02686329 -34.80281067 85.03463173 C-32.46489123 85.04016657 -30.12697803 85.05097476 -27.78910828 85.06719017 C-24.50965702 85.08902781 -21.23068437 85.09196421 -17.95117188 85.09057617 C-16.9887558 85.101362 -16.02633972 85.11214783 -15.03475952 85.1232605 C-9.10713303 85.09618601 -4.70605902 84.26632631 0.6875 81.75 C4.30257657 77.79847076 4.19344551 73.37317327 4.125 68.25 C4.11255249 67.05286377 4.11255249 67.05286377 4.09985352 65.83154297 C3.69289481 51.39826726 -2.50521254 38.1910067 -12.30078125 27.625 C-25.91554847 14.93550822 -40.56354908 9.91278275 -58.9765625 10.46875 C-75.44098013 11.32738977 -88.25752463 19.03813479 -99.3125 30.75 Z " fill="#FFFFFF" transform="translate(1875.3125,186.25)"/>
<path d="M0 0 C0.70181396 0.00563965 1.40362793 0.0112793 2.12670898 0.01708984 C10.66165409 0.21642606 16.34122676 2.06447407 22.71484375 7.71484375 C25.8746739 11.29481752 26.37603806 14.33743793 26.38506222 19.04819202 C26.39212781 20.22574364 26.3991934 21.40329525 26.4064731 22.61653024 C26.40405802 23.91135361 26.40164293 25.20617698 26.39915466 26.54023743 C26.4036064 27.92876146 26.40892023 29.31728295 26.41502339 30.70580071 C26.42922159 34.52559893 26.43086634 38.34531586 26.43042648 42.16513669 C26.43207308 46.28318366 26.44513661 50.40119697 26.45661926 54.51922607 C26.47948016 63.52536985 26.48739096 72.53149008 26.49244571 81.53765893 C26.4957013 87.16003474 26.50222292 92.78240369 26.5094471 98.40477562 C26.52901402 113.96863872 26.54541783 129.53249545 26.54832363 145.09637165 C26.54860499 146.59064701 26.54860499 146.59064701 26.54889202 148.11510975 C26.54925828 150.13465321 26.54962198 152.15419667 26.54998314 154.17374013 C26.55025735 155.67751538 26.55025735 155.67751538 26.55053711 157.21166992 C26.55071766 158.21540892 26.55089821 159.21914792 26.55108423 160.25330325 C26.55462668 176.52139322 26.58165311 192.78935088 26.619035 209.05739496 C26.65709897 225.75575574 26.67648097 242.45405084 26.67678314 259.15245599 C26.67736813 268.52957835 26.68588642 277.90654287 26.71478081 287.28362465 C26.7392691 295.2675667 26.74659486 303.25129335 26.73153328 311.23526279 C26.724354 315.30912649 26.72526523 319.3825646 26.74794388 323.45638084 C26.76851132 327.18667722 26.76595533 330.91622023 26.74506903 334.64650824 C26.73991342 336.63344558 26.75937084 338.62039983 26.77973074 340.60723954 C26.71113352 347.87473702 26.17905863 351.94989226 21.125 357.3125 C14.08816486 362.83332039 4.98847004 365.27454924 -3.875 364.3125 C-12.49597304 363.02063312 -18.00349551 359.74384561 -23.875 353.3125 C-25.18977557 350.68294885 -25.00408379 348.73523676 -25.00922108 345.78887558 C-25.01367892 344.60772258 -25.01813676 343.42656957 -25.02272969 342.20962405 C-25.02254533 340.90051098 -25.02236097 339.59139791 -25.02217102 338.24261475 C-25.02546876 336.84685642 -25.02919414 335.45109906 -25.0333125 334.05534291 C-25.04335089 330.20631033 -25.04705224 326.35729334 -25.04970181 322.50824952 C-25.05359942 318.36224848 -25.06317813 314.21625986 -25.07191467 310.07026672 C-25.09169448 300.05096541 -25.10174722 290.03166306 -25.11064246 280.0123471 C-25.11502289 275.29712284 -25.12039033 270.5818997 -25.12563133 265.86667633 C-25.14264514 250.19737862 -25.15714008 234.52808162 -25.16438007 218.85877609 C-25.16629005 214.7907791 -25.16821037 210.72278212 -25.17016602 206.65478516 C-25.17064976 205.64367161 -25.1711335 204.63255807 -25.1716319 203.59080473 C-25.17993504 187.20553903 -25.20527606 170.82034628 -25.23774669 154.43511245 C-25.27079295 137.62269418 -25.28882663 120.81031302 -25.29202431 103.9978621 C-25.29419167 94.5542513 -25.30297325 85.11074686 -25.32848549 75.66716766 C-25.35015928 67.62571723 -25.35825932 59.58439898 -25.34851871 51.54292265 C-25.34396432 47.43887207 -25.34592595 43.33509441 -25.36528015 39.23108101 C-25.38284392 35.47433207 -25.38196988 31.71805652 -25.36638286 27.96130303 C-25.36286536 25.95763066 -25.37908363 23.95395372 -25.39598733 21.95034957 C-25.31755512 11.05887597 -25.31755512 11.05887597 -20.875 6.3125 C-14.5633948 1.26321584 -7.94982229 -0.06702247 0 0 Z " fill="#FFFFFF" transform="translate(62.875,37.6875)"/>
<path d="M0 0 C0.85078125 0.48339844 1.7015625 0.96679688 2.578125 1.46484375 C22.72024743 13.96310317 37.03203271 34.32273925 42.52877808 57.20083618 C44.29317024 65.71217411 44.30959282 74.12394778 44.30078125 82.76953125 C44.3046797 84.3793702 44.30901668 85.98920814 44.31376648 87.5990448 C44.32118566 90.9583979 44.32096922 94.31764582 44.31567383 97.67700195 C44.30988945 101.9431334 44.32680624 106.20882922 44.3500185 110.4748888 C44.36488244 113.79614196 44.36561044 117.1172933 44.36250877 120.43857384 C44.3630158 122.00955758 44.36813464 123.58054799 44.37832069 125.15149879 C44.52468271 150.87830516 36.05294866 171.66707835 19 191 C18.46117187 191.62261719 17.92234375 192.24523437 17.3671875 192.88671875 C1.21562031 210.29632258 -21.24213221 218.39293927 -44.421875 220.1875 C-68.94338978 220.92498917 -89.70811702 210.47458674 -107.6953125 194.625 C-123.5009385 179.56258526 -135.20271153 158.71408388 -136.14717102 136.545578 C-136.15701523 135.27781021 -136.16685944 134.01004242 -136.17700195 132.70385742 C-136.18357315 131.99877045 -136.19014435 131.29368347 -136.19691467 130.56723022 C-136.2165279 128.24664164 -136.22828997 125.92611776 -136.23828125 123.60546875 C-136.24439454 122.40438697 -136.24439454 122.40438697 -136.25063133 121.17904091 C-136.27145183 116.93194468 -136.28576492 112.68488026 -136.29516602 108.43774414 C-136.30615851 104.09883325 -136.34048587 99.76044539 -136.38033772 95.42171764 C-136.40678058 92.0454478 -136.41488252 88.66929673 -136.41844749 85.29293251 C-136.42325081 83.69649071 -136.43468024 82.10005187 -136.45348549 80.50371361 C-136.74208317 54.35818829 -128.20712124 33.0016138 -110 14 C-109.41476562 13.36320312 -108.82953125 12.72640625 -108.2265625 12.0703125 C-80.32211589 -17.40621561 -33.74193681 -19.32761819 0 0 Z M-89 37 C-97.8634064 48.00868947 -104.06199873 59.63531502 -104.17700195 73.95483398 C-104.18357315 74.6353331 -104.19014435 75.31583221 -104.19691467 76.01695251 C-104.21655398 78.26000099 -104.22829447 80.50298252 -104.23828125 82.74609375 C-104.24235678 83.51837877 -104.2464323 84.2906638 -104.25063133 85.08635139 C-104.27146068 89.18085584 -104.28577118 93.27532717 -104.29516602 97.36987305 C-104.30617338 101.56226433 -104.34051565 105.75411649 -104.38033772 109.94631863 C-104.40671986 113.20065674 -104.41487717 116.45487112 -104.41844749 119.70930672 C-104.42326458 121.25240751 -104.43473581 122.79550467 -104.45348549 124.33849907 C-104.67463974 143.75829132 -99.26007772 159.20549923 -85.59765625 173.52734375 C-74.64746921 183.95060449 -60.99137828 189.88243747 -45.8125 190.03125 C-28.07768179 189.17861451 -14.69412006 181.81767853 -2.734375 169.11328125 C13.50663132 151.09067898 13.34477267 129.32380758 13.26074219 106.4206543 C13.250011 102.94106668 13.26069451 99.46199398 13.2734375 95.98242188 C13.29038262 71.35488849 10.77213677 52.55227294 -6.625 33.8125 C-17.59043168 23.21820601 -31.11875702 17.38459286 -46.375 17.5625 C-47.2925708 17.57007324 -48.2101416 17.57764648 -49.15551758 17.58544922 C-65.13155147 17.97231915 -78.16743994 25.47746797 -89 37 Z " fill="#FFFFFF" transform="translate(1438,182)"/>
<path d="M0 0 C2.72490654 2.17384455 5.30915364 4.42547512 7.86328125 6.796875 C8.66378906 7.5290625 9.46429687 8.26125 10.2890625 9.015625 C25.01157267 23.07005488 36.05057355 44.17763007 37.00029564 64.76730347 C37.00586794 65.81588531 37.01144024 66.86446716 37.0171814 67.94482422 C37.02578186 69.15603943 37.03438232 70.36725464 37.04324341 71.61517334 C37.04963333 73.58843597 37.04963333 73.58843597 37.05615234 75.6015625 C37.06406229 77.01141558 37.07233178 78.42126669 37.08093262 79.83111572 C37.10703209 84.4446828 37.12244017 89.05825844 37.13671875 93.671875 C37.1420819 95.26348882 37.14745942 96.85510259 37.1528511 98.44671631 C37.17445498 105.06600154 37.19319302 111.68528444 37.2044735 118.30459595 C37.22072836 127.77823526 37.25397152 137.25146561 37.31087434 146.72495079 C37.34957108 153.39517408 37.36910538 160.06528791 37.37439406 166.7356205 C37.37804561 170.71649118 37.39004699 174.69692444 37.4224968 178.67767334 C37.45257619 182.42071173 37.45889031 186.16304785 37.44711304 189.90618134 C37.44678729 191.93038 37.47124923 193.95453535 37.49649048 195.97857666 C37.42838032 205.89577829 37.42838032 205.89577829 34.47940063 209.57519531 C29.19375698 214.06390757 24.48525694 214.23309448 17.74609375 214.1171875 C12.97199382 213.58673195 10.36995114 211.46029121 7.23501682 207.99921417 C5.52024134 205.24612 5.48471914 203.54034511 5.47801208 200.30944824 C5.46836426 199.19379486 5.45871643 198.07814148 5.44877625 196.92868042 C5.45335342 195.7089151 5.4579306 194.48914978 5.46264648 193.23242188 C5.45566742 191.94413483 5.44868835 190.65584778 5.4414978 189.32852173 C5.42638737 186.52712571 5.42061026 183.72592022 5.42202568 180.92448425 C5.42406264 176.48490869 5.40446653 172.04558786 5.3818512 167.6060791 C5.34086252 158.97079789 5.32228567 150.3355366 5.30567932 141.70018005 C5.2833377 130.73795889 5.24951168 119.77579716 5.19848019 108.81367159 C5.17868834 104.41140612 5.16898711 100.00927327 5.16752803 95.60696507 C5.16542491 93.51890301 5.15884074 91.43091019 5.15036011 89.34286499 C5.14020137 86.81169497 5.13688868 84.28048281 5.14225769 81.7492981 C5.04039307 64.76870633 1.28235113 51.33922578 -9.13671875 37.796875 C-9.85859375 36.78625 -10.58046875 35.775625 -11.32421875 34.734375 C-19.60459417 25.24026376 -32.51883911 17.69198695 -45.23632812 16.61987305 C-64.30963015 16.09905072 -78.49464469 19.79536511 -92.74609375 33.1953125 C-106.63173324 48.30615548 -108.28716933 66.53435828 -108.27856445 86.06176758 C-108.28389734 88.04278852 -108.2892362 90.02380946 -108.29480112 92.00482976 C-108.2999654 94.11402264 -108.30290066 96.22320938 -108.30538368 98.332407 C-108.31133924 102.74106814 -108.32791793 107.14965052 -108.34672546 111.55827332 C-108.35306071 113.0724649 -108.35938636 114.58665653 -108.36570263 116.1008482 C-108.37045135 117.2373181 -108.37045135 117.2373181 -108.375296 118.39674699 C-108.41727217 128.64623934 -108.45039055 138.89569087 -108.46264648 149.14526367 C-108.47102436 156.08085991 -108.4934922 163.0162565 -108.53200215 169.95175284 C-108.5517479 173.61552232 -108.56417181 177.2789935 -108.55916786 180.9428196 C-108.55366281 185.02181069 -108.57890674 189.10005488 -108.60668945 193.17895508 C-108.60008804 194.38891647 -108.59348663 195.59887787 -108.58668518 196.84550476 C-108.67839434 205.02147235 -108.67839434 205.02147235 -111.01359558 208.97221375 C-116.48853152 213.67750057 -121.22556806 214.33615216 -128.2890625 214.15234375 C-132.99860909 213.56445796 -135.5026653 211.4171531 -138.7648325 208.18248653 C-140.77251988 204.69126256 -140.55376076 201.29542697 -140.5243988 197.37709045 C-140.52978434 196.51965459 -140.53516988 195.66221872 -140.54071862 194.77879995 C-140.55504613 191.90064651 -140.54788267 189.02294989 -140.54077148 186.14477539 C-140.54647254 184.08335499 -140.55343577 182.02193775 -140.56156921 179.96052551 C-140.5795449 174.35725423 -140.57832394 168.75413916 -140.57262683 163.15084767 C-140.56954135 158.47620429 -140.57562028 153.80159119 -140.58166558 149.12695211 C-140.59572368 138.10064113 -140.59413881 127.0744076 -140.58276367 116.0480957 C-140.5712808 104.6656928 -140.58535816 93.28352548 -140.61216015 81.90115362 C-140.63429793 72.13460441 -140.64095887 62.36812925 -140.63508373 52.60155672 C-140.63170841 46.76578313 -140.63416748 40.93016057 -140.65133476 35.09440804 C-140.66677114 29.60733181 -140.662885 24.12060526 -140.64402962 18.63354301 C-140.64033458 16.61833133 -140.6434787 14.60309393 -140.65391541 12.58790588 C-140.66706443 9.83941206 -140.65563205 7.09208626 -140.63792419 4.34364319 C-140.6475292 3.54383673 -140.65713421 2.74403028 -140.66703027 1.91998726 C-140.61726057 -1.82759805 -140.28045039 -3.97960096 -138.23307896 -7.16356754 C-134.44224307 -10.85168735 -129.99821486 -12.0854648 -124.76171875 -12.30078125 C-119.61596385 -11.94440295 -116.13603204 -10.61717293 -112.13671875 -7.203125 C-110.25738355 -4.17903762 -109.85186078 -1.75034043 -109.72265625 1.78125 C-109.68398437 2.71582031 -109.6453125 3.65039062 -109.60546875 4.61328125 C-109.57453125 5.58136719 -109.54359375 6.54945313 -109.51171875 7.546875 C-109.47304687 8.53042969 -109.434375 9.51398438 -109.39453125 10.52734375 C-109.30043449 12.95033537 -109.21479547 15.37332296 -109.13671875 17.796875 C-108.75652588 17.27738281 -108.37633301 16.75789063 -107.98461914 16.22265625 C-96.72051071 0.99032965 -82.25025632 -10.12833959 -63.29638672 -13.74511719 C-40.64407854 -17.0286692 -18.8169807 -13.21640986 0 0 Z " fill="#FFFFFF" transform="translate(1659.13671875,184.203125)"/>
<path d="M0 0 C1.76827148 -0.01740234 1.76827148 -0.01740234 3.57226562 -0.03515625 C10.67365016 -0.01107015 15.63173622 0.30433547 21.109375 5.20703125 C26.80698024 11.83245753 28.51034574 16.87440266 28.30859375 25.6328125 C27.71781311 32.21579682 25.11151469 36.80133568 20.953125 41.83203125 C14.40356856 47.17722711 7.52196054 46.75831538 -0.5625 46.8125 C-17.87509578 47.23186525 -30.32566556 50.90334736 -43.1875 63.125 C-57.00836821 77.73313286 -62.07476826 95.56720225 -62.09521484 115.27978516 C-62.10029556 116.35542221 -62.10537628 117.43105927 -62.11061096 118.53929138 C-62.12127908 120.86586326 -62.12991308 123.19244517 -62.13673019 125.51903152 C-62.14855537 129.20076045 -62.16801485 132.88237399 -62.18984985 136.5640564 C-62.25136449 147.02866801 -62.30559475 157.49326513 -62.33886719 167.95800781 C-62.35978644 174.36577804 -62.39505917 180.77333319 -62.43962479 187.18098068 C-62.45379714 189.62181447 -62.46251 192.06268624 -62.46567917 194.50355911 C-62.47057618 197.91227085 -62.49370095 201.32040844 -62.52099609 204.72900391 C-62.51798996 205.73796219 -62.51498383 206.74692047 -62.5118866 207.78645325 C-62.58447995 213.87721045 -63.27885261 217.45385324 -67.48046875 222.0703125 C-75.44629371 228.99547149 -82.88665163 229.99880121 -93.1484375 229.66015625 C-100.58341895 229.10061641 -105.68250097 226.62999903 -110.9375 221.375 C-113.864645 216.64716843 -114.3670508 212.61521723 -114.31845093 207.17700195 C-114.3231309 206.36756543 -114.32781087 205.55812891 -114.33263266 204.72416401 C-114.34456875 202.0203682 -114.33513092 199.31708054 -114.32568359 196.61328125 C-114.32974991 194.67141423 -114.33509213 192.72954953 -114.34161377 190.78768921 C-114.35528598 185.51915688 -114.34998906 180.25080087 -114.34047651 174.98226547 C-114.33287947 169.46774573 -114.33992566 163.95324104 -114.34463501 158.4387207 C-114.35009242 149.1781951 -114.3429013 139.91774127 -114.32861328 130.65722656 C-114.31228683 119.95193256 -114.31757534 109.24680997 -114.3340925 98.54152012 C-114.34770774 89.34900985 -114.34962682 80.15655117 -114.34177649 70.96403408 C-114.3371002 65.47425464 -114.33647396 59.98455576 -114.34638596 54.49478149 C-114.35505386 49.33356327 -114.3490368 44.17256598 -114.33170319 39.01137161 C-114.32773742 37.11752311 -114.32887392 35.22365601 -114.33549118 33.32981491 C-114.34369318 30.74395852 -114.33340148 28.15880942 -114.31845093 25.57299805 C-114.32514309 24.82416005 -114.33183526 24.07532206 -114.33873022 23.303792 C-114.26867014 17.05331142 -112.65954102 13.13804199 -108.3125 8.6875 C-100.56009615 2.82592636 -91.34742268 2.38505438 -81.9375 3.375 C-76.20818456 4.97789313 -70.01704481 7.95604053 -66.83447266 13.18847656 C-65.80720517 15.69261582 -65.62224731 17.65857343 -65.5234375 20.359375 C-65.46542969 21.76123047 -65.46542969 21.76123047 -65.40625 23.19140625 C-65.3753125 24.15949219 -65.344375 25.12757813 -65.3125 26.125 C-65.25449219 27.60033203 -65.25449219 27.60033203 -65.1953125 29.10546875 C-65.10121574 31.52846037 -65.01557672 33.95144796 -64.9375 36.375 C-64.56979492 35.7869458 -64.20208984 35.1988916 -63.82324219 34.59301758 C-53.77571647 18.70050134 -39.37022755 6.44670375 -20.92578125 1.73046875 C-13.90871778 0.18669483 -7.16321953 -0.0721533 0 0 Z " fill="#FFFFFF" transform="translate(1260.9375,168.625)"/>
<path d="M0 0 C0.70108887 0.00418945 1.40217773 0.00837891 2.12451172 0.01269531 C10.28727155 0.19026981 16.72565437 2.13207735 23.125 7.3125 C26.45343579 11.58658071 26.55683468 15.54350675 26.52613831 20.76315308 C26.53293498 21.61186513 26.53973164 22.46057719 26.54673427 23.33500779 C26.56571851 26.17772752 26.56326866 29.02001687 26.56079102 31.86279297 C26.56976775 33.90141352 26.57997579 35.94002897 26.59132385 37.9786377 C26.61783592 43.51585235 26.62485781 49.05292796 26.62677121 54.59019995 C26.62961978 59.21251652 26.64065607 63.8348007 26.6512875 68.4571048 C26.67571783 79.36220766 26.68304048 90.26723621 26.6809082 101.17236328 C26.67910555 112.42248591 26.71076757 123.67217711 26.75813919 134.92219055 C26.79736132 144.58094021 26.8134601 154.23954884 26.81154197 163.89837754 C26.81077691 169.66722725 26.81933603 175.43569355 26.85107613 181.20446396 C26.88011335 186.63012152 26.88036215 192.05502894 26.85852623 197.48071289 C26.85538792 199.47090881 26.86248242 201.46115138 26.8806076 203.45126724 C26.90377194 206.17101989 26.88984044 208.88818264 26.86671448 211.60787964 C26.88214517 212.3933964 26.89757586 213.17891315 26.91347414 213.98823345 C26.81325984 219.33003843 25.32010298 222.04447147 21.66166824 225.91713631 C16.93418083 230.20990693 10.47554215 232.89833421 4.125 233.3125 C2.908125 233.395 1.69125 233.4775 0.4375 233.5625 C-8.18369887 233.38117459 -14.99578832 231.00274453 -21.31640625 225.12890625 C-24.6248573 221.27319262 -25.12799658 218.21917763 -25.1534729 213.17486572 C-25.16463638 211.91565811 -25.17579987 210.6564505 -25.18730164 209.35908508 C-25.18966652 207.96627837 -25.19184218 206.57347133 -25.19384766 205.18066406 C-25.20314709 203.71210681 -25.21331579 202.24355485 -25.22428894 200.77500916 C-25.25160136 196.78984714 -25.26674201 192.8047205 -25.27971697 188.81948948 C-25.29534208 184.65409345 -25.32213427 180.48876972 -25.3477478 176.32342529 C-25.39454657 168.43644976 -25.43128536 160.54946065 -25.46442068 152.66241717 C-25.5026343 143.68300684 -25.55204645 134.70366909 -25.60240483 125.72431993 C-25.70574102 107.25376641 -25.79499594 88.78316858 -25.875 70.3125 C-29.04242316 72.20707154 -32.20879661 74.10339081 -35.375 76 C-36.261875 76.53044922 -37.14875 77.06089844 -38.0625 77.60742188 C-42.82233781 80.45982468 -47.54772477 83.34397817 -52.1958313 86.37582397 C-56.44581504 88.74655532 -61.24246533 88.0376445 -65.875 87.3125 C-74.49791088 84.68156807 -81.7081511 78.59627216 -86.32421875 70.89453125 C-89.00972316 64.9675759 -89.9745426 58.76116874 -88.875 52.3125 C-86.92920506 48.50067138 -84.99669688 46.34221023 -81.453125 43.97265625 C-80.56302734 43.37598145 -79.67292969 42.77930664 -78.75585938 42.16455078 C-73.75711804 38.95095317 -68.7046486 35.83381287 -63.625 32.75 C-61.32268514 31.34494765 -59.02232014 29.93673015 -56.72265625 28.52734375 C-56.14755814 28.17501678 -55.57246002 27.82268982 -54.97993469 27.45968628 C-49.30069929 23.97310545 -43.67704897 20.40198491 -38.0625 16.8125 C-36.27344476 15.67186361 -34.48438256 14.53123814 -32.6953125 13.390625 C-30.38933025 11.91948955 -28.08424108 10.44717268 -25.78417969 8.96679688 C-24.00681964 7.8241436 -22.22330582 6.69188859 -20.4375 5.5625 C-19.04724609 4.67304688 -19.04724609 4.67304688 -17.62890625 3.765625 C-11.92920981 0.7581256 -6.37334722 -0.0522028 0 0 Z " fill="#FFFFFF" transform="translate(206.875,168.6875)"/>
</svg>
